# xmcd
# 
# Track frame offsets:
#     150
#     13075
#     29745
#     43002
#     63776
#     78702
#     88246
#     106165
#     121761
# 
# Disc length: 1734
# 
# Revision: 0
# Processed by: cddbd v1.5.2PL0 Copyright (c) Steve Scherf et al.
# Submitted via: fre:ac v1.0.17
# 
DISCID=7006c409
DTITLE=naomi&goro - BON BON
DYEAR=2004
DGENRE=Jazz
TTITLE0=GINGERE
TTITLE1=BEAUTIFUL LOVE
TTITLE2=BON BON
TTITLE3=SUPER BOOTS
TTITLE4=HOME SWEET HOME -good night version
TTITLE5=SAMBA DE MARIA LUIZA
TTITLE6=NO CEU AZUL
TTITLE7=AFTERNOON IN THAILAND
TTITLE8=GINGERE -NA PRAIA VERSION-
EXTD=YEAR: 2004
EXTT0=
EXTT1=
EXTT2=
EXTT3=
EXTT4=
EXTT5=
EXTT6=
EXTT7=
EXTT8=
PLAYORDER=
